<mxfile host="app.diagrams.net" modified="2024-02-23T06:41:18.841Z" agent="Mozilla/5.0 (Macintosh; Intel Mac OS X 10_15_7) AppleWebKit/537.36 (KHTML, like Gecko) Chrome/121.0.0.0 Safari/537.36" etag="gIT2rcWI9jqJCbVPD9YR" version="23.1.1" type="github">
  <diagram name="Page-1" id="74e2e168-ea6b-b213-b513-2b3c1d86103e">
    <mxGraphModel dx="2693" dy="873" grid="1" gridSize="10" guides="1" tooltips="1" connect="1" arrows="1" fold="1" page="1" pageScale="1" pageWidth="1100" pageHeight="850" background="none" math="0" shadow="0">
      <root>
        <mxCell id="0" />
        <object label="基本レイヤ" id="1">
          <mxCell parent="0" />
        </object>
        <mxCell id="_cIhOyTJUcToX3f4oClC-6" value="Backend" style="rounded=0;whiteSpace=wrap;html=1;" vertex="1" parent="1">
          <mxGeometry x="160" y="80" width="120" height="30" as="geometry" />
        </mxCell>
        <mxCell id="_cIhOyTJUcToX3f4oClC-7" value="" style="endArrow=none;html=1;rounded=0;entryX=0.5;entryY=1;entryDx=0;entryDy=0;dashed=1;dashPattern=12 12;" edge="1" parent="1" source="_cIhOyTJUcToX3f4oClC-56" target="_cIhOyTJUcToX3f4oClC-6">
          <mxGeometry width="50" height="50" relative="1" as="geometry">
            <mxPoint x="220" y="630" as="sourcePoint" />
            <mxPoint x="640" y="230" as="targetPoint" />
          </mxGeometry>
        </mxCell>
        <mxCell id="_cIhOyTJUcToX3f4oClC-8" value="&lt;div style=&quot;&quot;&gt;&lt;span style=&quot;background-color: initial;&quot;&gt;Events Bridge&amp;nbsp;&amp;nbsp;&lt;/span&gt;&lt;/div&gt;" style="rounded=0;whiteSpace=wrap;html=1;align=right;" vertex="1" parent="1">
          <mxGeometry x="320" y="80" width="120" height="30" as="geometry" />
        </mxCell>
        <mxCell id="_cIhOyTJUcToX3f4oClC-9" value="" style="endArrow=none;html=1;rounded=0;entryX=0.5;entryY=1;entryDx=0;entryDy=0;dashed=1;dashPattern=12 12;" edge="1" parent="1" target="_cIhOyTJUcToX3f4oClC-8">
          <mxGeometry width="50" height="50" relative="1" as="geometry">
            <mxPoint x="380" y="630" as="sourcePoint" />
            <mxPoint x="800" y="230" as="targetPoint" />
          </mxGeometry>
        </mxCell>
        <mxCell id="_cIhOyTJUcToX3f4oClC-10" value="Lamda" style="rounded=0;whiteSpace=wrap;html=1;align=center;" vertex="1" parent="1">
          <mxGeometry x="480" y="80" width="120" height="30" as="geometry" />
        </mxCell>
        <mxCell id="_cIhOyTJUcToX3f4oClC-11" value="" style="endArrow=none;html=1;rounded=0;entryX=0.5;entryY=1;entryDx=0;entryDy=0;dashed=1;dashPattern=12 12;" edge="1" parent="1" target="_cIhOyTJUcToX3f4oClC-10" source="_cIhOyTJUcToX3f4oClC-30">
          <mxGeometry width="50" height="50" relative="1" as="geometry">
            <mxPoint x="540" y="630" as="sourcePoint" />
            <mxPoint x="960" y="230" as="targetPoint" />
          </mxGeometry>
        </mxCell>
        <mxCell id="_cIhOyTJUcToX3f4oClC-12" value="EC2" style="rounded=0;whiteSpace=wrap;html=1;" vertex="1" parent="1">
          <mxGeometry x="640" y="80" width="120" height="30" as="geometry" />
        </mxCell>
        <mxCell id="_cIhOyTJUcToX3f4oClC-13" value="" style="endArrow=none;html=1;rounded=0;entryX=0.5;entryY=1;entryDx=0;entryDy=0;dashed=1;dashPattern=12 12;" edge="1" parent="1" target="_cIhOyTJUcToX3f4oClC-12" source="_cIhOyTJUcToX3f4oClC-74">
          <mxGeometry width="50" height="50" relative="1" as="geometry">
            <mxPoint x="700" y="630" as="sourcePoint" />
            <mxPoint x="1120" y="230" as="targetPoint" />
          </mxGeometry>
        </mxCell>
        <mxCell id="_cIhOyTJUcToX3f4oClC-14" value="RDS" style="rounded=0;whiteSpace=wrap;html=1;" vertex="1" parent="1">
          <mxGeometry x="800" y="80" width="120" height="30" as="geometry" />
        </mxCell>
        <mxCell id="_cIhOyTJUcToX3f4oClC-15" value="" style="endArrow=none;html=1;rounded=0;entryX=0.5;entryY=1;entryDx=0;entryDy=0;dashed=1;dashPattern=12 12;" edge="1" parent="1" target="_cIhOyTJUcToX3f4oClC-14" source="_cIhOyTJUcToX3f4oClC-36">
          <mxGeometry width="50" height="50" relative="1" as="geometry">
            <mxPoint x="860" y="630" as="sourcePoint" />
            <mxPoint x="1280" y="230" as="targetPoint" />
          </mxGeometry>
        </mxCell>
        <mxCell id="_cIhOyTJUcToX3f4oClC-16" value="☀️&amp;nbsp; &amp;nbsp; &amp;nbsp;天気予報API" style="rounded=0;whiteSpace=wrap;html=1;align=left;" vertex="1" parent="1">
          <mxGeometry x="960" y="80" width="120" height="30" as="geometry" />
        </mxCell>
        <mxCell id="_cIhOyTJUcToX3f4oClC-17" value="" style="endArrow=none;html=1;rounded=0;entryX=0.5;entryY=1;entryDx=0;entryDy=0;dashed=1;dashPattern=12 12;" edge="1" parent="1" target="_cIhOyTJUcToX3f4oClC-16" source="_cIhOyTJUcToX3f4oClC-45">
          <mxGeometry width="50" height="50" relative="1" as="geometry">
            <mxPoint x="1020" y="630" as="sourcePoint" />
            <mxPoint x="1440" y="230" as="targetPoint" />
          </mxGeometry>
        </mxCell>
        <mxCell id="_cIhOyTJUcToX3f4oClC-18" value="" style="sketch=0;points=[[0,0,0],[0.25,0,0],[0.5,0,0],[0.75,0,0],[1,0,0],[0,1,0],[0.25,1,0],[0.5,1,0],[0.75,1,0],[1,1,0],[0,0.25,0],[0,0.5,0],[0,0.75,0],[1,0.25,0],[1,0.5,0],[1,0.75,0]];outlineConnect=0;fontColor=#232F3E;fillColor=#C925D1;strokeColor=#ffffff;dashed=0;verticalLabelPosition=bottom;verticalAlign=top;align=center;html=1;fontSize=12;fontStyle=0;aspect=fixed;shape=mxgraph.aws4.resourceIcon;resIcon=mxgraph.aws4.rds;" vertex="1" parent="1">
          <mxGeometry x="800" y="81" width="28" height="28" as="geometry" />
        </mxCell>
        <mxCell id="_cIhOyTJUcToX3f4oClC-19" value="" style="sketch=0;points=[[0,0,0],[0.25,0,0],[0.5,0,0],[0.75,0,0],[1,0,0],[0,1,0],[0.25,1,0],[0.5,1,0],[0.75,1,0],[1,1,0],[0,0.25,0],[0,0.5,0],[0,0.75,0],[1,0.25,0],[1,0.5,0],[1,0.75,0]];outlineConnect=0;fontColor=#232F3E;fillColor=#ED7100;strokeColor=#ffffff;dashed=0;verticalLabelPosition=bottom;verticalAlign=top;align=center;html=1;fontSize=12;fontStyle=0;aspect=fixed;shape=mxgraph.aws4.resourceIcon;resIcon=mxgraph.aws4.ec2;" vertex="1" parent="1">
          <mxGeometry x="640" y="81" width="29" height="29" as="geometry" />
        </mxCell>
        <mxCell id="_cIhOyTJUcToX3f4oClC-20" value="" style="sketch=0;points=[[0,0,0],[0.25,0,0],[0.5,0,0],[0.75,0,0],[1,0,0],[0,1,0],[0.25,1,0],[0.5,1,0],[0.75,1,0],[1,1,0],[0,0.25,0],[0,0.5,0],[0,0.75,0],[1,0.25,0],[1,0.5,0],[1,0.75,0]];outlineConnect=0;fontColor=#232F3E;fillColor=#ED7100;strokeColor=#ffffff;dashed=0;verticalLabelPosition=bottom;verticalAlign=top;align=center;html=1;fontSize=12;fontStyle=0;aspect=fixed;shape=mxgraph.aws4.resourceIcon;resIcon=mxgraph.aws4.lambda;" vertex="1" parent="1">
          <mxGeometry x="480" y="80" width="30" height="30" as="geometry" />
        </mxCell>
        <mxCell id="_cIhOyTJUcToX3f4oClC-21" value="" style="sketch=0;points=[[0,0,0],[0.25,0,0],[0.5,0,0],[0.75,0,0],[1,0,0],[0,1,0],[0.25,1,0],[0.5,1,0],[0.75,1,0],[1,1,0],[0,0.25,0],[0,0.5,0],[0,0.75,0],[1,0.25,0],[1,0.5,0],[1,0.75,0]];outlineConnect=0;fontColor=#232F3E;fillColor=#E7157B;strokeColor=#ffffff;dashed=0;verticalLabelPosition=bottom;verticalAlign=top;align=center;html=1;fontSize=12;fontStyle=0;aspect=fixed;shape=mxgraph.aws4.resourceIcon;resIcon=mxgraph.aws4.eventbridge;" vertex="1" parent="1">
          <mxGeometry x="320" y="80" width="30" height="30" as="geometry" />
        </mxCell>
        <mxCell id="_cIhOyTJUcToX3f4oClC-23" value="Frontend" style="rounded=0;whiteSpace=wrap;html=1;" vertex="1" parent="1">
          <mxGeometry y="80" width="120" height="30" as="geometry" />
        </mxCell>
        <mxCell id="_cIhOyTJUcToX3f4oClC-24" value="" style="endArrow=none;html=1;rounded=0;entryX=0.5;entryY=1;entryDx=0;entryDy=0;dashed=1;dashPattern=12 12;" edge="1" parent="1" target="_cIhOyTJUcToX3f4oClC-23" source="_cIhOyTJUcToX3f4oClC-54">
          <mxGeometry width="50" height="50" relative="1" as="geometry">
            <mxPoint x="60" y="630" as="sourcePoint" />
            <mxPoint x="480" y="230" as="targetPoint" />
          </mxGeometry>
        </mxCell>
        <mxCell id="_cIhOyTJUcToX3f4oClC-25" value="User" style="rounded=0;whiteSpace=wrap;html=1;" vertex="1" parent="1">
          <mxGeometry x="-160" y="81" width="120" height="30" as="geometry" />
        </mxCell>
        <mxCell id="_cIhOyTJUcToX3f4oClC-26" value="" style="endArrow=none;html=1;rounded=0;entryX=0.5;entryY=1;entryDx=0;entryDy=0;dashed=1;dashPattern=12 12;" edge="1" parent="1" target="_cIhOyTJUcToX3f4oClC-25" source="_cIhOyTJUcToX3f4oClC-53">
          <mxGeometry width="50" height="50" relative="1" as="geometry">
            <mxPoint x="-100" y="631" as="sourcePoint" />
            <mxPoint x="320" y="231" as="targetPoint" />
          </mxGeometry>
        </mxCell>
        <mxCell id="_cIhOyTJUcToX3f4oClC-27" value="" style="shape=mxgraph.cisco.people.androgenous_person;html=1;pointerEvents=1;dashed=0;fillColor=#036897;strokeColor=#ffffff;strokeWidth=2;verticalLabelPosition=bottom;verticalAlign=top;align=center;outlineConnect=0;" vertex="1" parent="1">
          <mxGeometry x="-160" y="81" width="30" height="29" as="geometry" />
        </mxCell>
        <mxCell id="_cIhOyTJUcToX3f4oClC-31" value="" style="endArrow=none;html=1;rounded=0;entryX=0.5;entryY=1;entryDx=0;entryDy=0;dashed=1;dashPattern=12 12;" edge="1" parent="1" target="_cIhOyTJUcToX3f4oClC-30">
          <mxGeometry width="50" height="50" relative="1" as="geometry">
            <mxPoint x="540" y="630" as="sourcePoint" />
            <mxPoint x="540" y="110" as="targetPoint" />
          </mxGeometry>
        </mxCell>
        <mxCell id="_cIhOyTJUcToX3f4oClC-30" value="" style="rounded=0;whiteSpace=wrap;html=1;" vertex="1" parent="1">
          <mxGeometry x="530" y="180" width="20" height="160" as="geometry" />
        </mxCell>
        <mxCell id="_cIhOyTJUcToX3f4oClC-44" value="" style="endArrow=none;html=1;rounded=0;entryX=0.5;entryY=1;entryDx=0;entryDy=0;dashed=1;dashPattern=12 12;" edge="1" parent="1" source="_cIhOyTJUcToX3f4oClC-78" target="_cIhOyTJUcToX3f4oClC-36">
          <mxGeometry width="50" height="50" relative="1" as="geometry">
            <mxPoint x="860" y="630" as="sourcePoint" />
            <mxPoint x="860" y="110" as="targetPoint" />
          </mxGeometry>
        </mxCell>
        <mxCell id="_cIhOyTJUcToX3f4oClC-36" value="" style="rounded=0;whiteSpace=wrap;html=1;" vertex="1" parent="1">
          <mxGeometry x="850" y="300" width="20" height="80" as="geometry" />
        </mxCell>
        <mxCell id="_cIhOyTJUcToX3f4oClC-50" value="" style="endArrow=none;html=1;rounded=0;entryX=0.5;entryY=1;entryDx=0;entryDy=0;dashed=1;dashPattern=12 12;" edge="1" parent="1" target="_cIhOyTJUcToX3f4oClC-45">
          <mxGeometry width="50" height="50" relative="1" as="geometry">
            <mxPoint x="1020" y="630" as="sourcePoint" />
            <mxPoint x="1020" y="110" as="targetPoint" />
          </mxGeometry>
        </mxCell>
        <mxCell id="_cIhOyTJUcToX3f4oClC-45" value="" style="rounded=0;whiteSpace=wrap;html=1;" vertex="1" parent="1">
          <mxGeometry x="1010" y="200" width="20" height="80" as="geometry" />
        </mxCell>
        <mxCell id="_cIhOyTJUcToX3f4oClC-55" value="" style="endArrow=none;html=1;rounded=0;entryX=0.5;entryY=1;entryDx=0;entryDy=0;dashed=1;dashPattern=12 12;" edge="1" parent="1" target="_cIhOyTJUcToX3f4oClC-54">
          <mxGeometry width="50" height="50" relative="1" as="geometry">
            <mxPoint x="60" y="630" as="sourcePoint" />
            <mxPoint x="60" y="110" as="targetPoint" />
          </mxGeometry>
        </mxCell>
        <mxCell id="_cIhOyTJUcToX3f4oClC-57" value="" style="endArrow=none;html=1;rounded=0;entryX=0.5;entryY=1;entryDx=0;entryDy=0;dashed=1;dashPattern=12 12;" edge="1" parent="1" target="_cIhOyTJUcToX3f4oClC-56">
          <mxGeometry width="50" height="50" relative="1" as="geometry">
            <mxPoint x="220" y="630" as="sourcePoint" />
            <mxPoint x="220" y="110" as="targetPoint" />
          </mxGeometry>
        </mxCell>
        <mxCell id="_cIhOyTJUcToX3f4oClC-73" value="" style="endArrow=none;html=1;rounded=0;entryX=0.5;entryY=1;entryDx=0;entryDy=0;dashed=1;dashPattern=12 12;" edge="1" parent="1" target="_cIhOyTJUcToX3f4oClC-53">
          <mxGeometry width="50" height="50" relative="1" as="geometry">
            <mxPoint x="-100" y="631" as="sourcePoint" />
            <mxPoint x="-100" y="111" as="targetPoint" />
          </mxGeometry>
        </mxCell>
        <mxCell id="_cIhOyTJUcToX3f4oClC-53" value="" style="rounded=0;whiteSpace=wrap;html=1;" vertex="1" parent="1">
          <mxGeometry x="-110" y="360" width="20" height="240" as="geometry" />
        </mxCell>
        <mxCell id="_cIhOyTJUcToX3f4oClC-75" value="" style="endArrow=none;html=1;rounded=0;entryX=0.5;entryY=1;entryDx=0;entryDy=0;dashed=1;dashPattern=12 12;" edge="1" parent="1" target="_cIhOyTJUcToX3f4oClC-74">
          <mxGeometry width="50" height="50" relative="1" as="geometry">
            <mxPoint x="700" y="630" as="sourcePoint" />
            <mxPoint x="700" y="110" as="targetPoint" />
          </mxGeometry>
        </mxCell>
        <mxCell id="_cIhOyTJUcToX3f4oClC-74" value="" style="rounded=0;whiteSpace=wrap;html=1;" vertex="1" parent="1">
          <mxGeometry x="690" y="490" width="20" height="80" as="geometry" />
        </mxCell>
        <mxCell id="_cIhOyTJUcToX3f4oClC-79" value="" style="endArrow=none;html=1;rounded=0;entryX=0.5;entryY=1;entryDx=0;entryDy=0;dashed=1;dashPattern=12 12;" edge="1" parent="1" target="_cIhOyTJUcToX3f4oClC-78">
          <mxGeometry width="50" height="50" relative="1" as="geometry">
            <mxPoint x="860" y="630" as="sourcePoint" />
            <mxPoint x="860" y="380" as="targetPoint" />
          </mxGeometry>
        </mxCell>
        <mxCell id="_cIhOyTJUcToX3f4oClC-78" value="" style="rounded=0;whiteSpace=wrap;html=1;" vertex="1" parent="1">
          <mxGeometry x="850" y="500" width="20" height="80" as="geometry" />
        </mxCell>
        <mxCell id="_cIhOyTJUcToX3f4oClC-28" value="AWS フロー" parent="0" />
        <mxCell id="_cIhOyTJUcToX3f4oClC-29" value="" style="rounded=0;whiteSpace=wrap;html=1;" vertex="1" parent="_cIhOyTJUcToX3f4oClC-28">
          <mxGeometry x="370" y="160" width="20" height="80" as="geometry" />
        </mxCell>
        <mxCell id="_cIhOyTJUcToX3f4oClC-32" value="" style="endArrow=classic;html=1;rounded=0;exitX=1;exitY=0.75;exitDx=0;exitDy=0;entryX=0;entryY=0.25;entryDx=0;entryDy=0;" edge="1" parent="_cIhOyTJUcToX3f4oClC-28">
          <mxGeometry relative="1" as="geometry">
            <mxPoint x="390" y="210" as="sourcePoint" />
            <mxPoint x="530" y="210" as="targetPoint" />
          </mxGeometry>
        </mxCell>
        <mxCell id="_cIhOyTJUcToX3f4oClC-33" value="trigger" style="edgeLabel;resizable=0;html=1;align=center;verticalAlign=middle;" connectable="0" vertex="1" parent="_cIhOyTJUcToX3f4oClC-32">
          <mxGeometry relative="1" as="geometry" />
        </mxCell>
        <mxCell id="_cIhOyTJUcToX3f4oClC-35" value="1日に1回&lt;br&gt;実行" style="text;html=1;strokeColor=none;fillColor=none;align=center;verticalAlign=middle;whiteSpace=wrap;rounded=0;" vertex="1" parent="_cIhOyTJUcToX3f4oClC-28">
          <mxGeometry x="310" y="130" width="60" height="30" as="geometry" />
        </mxCell>
        <mxCell id="_cIhOyTJUcToX3f4oClC-42" value="" style="endArrow=classic;html=1;rounded=0;exitX=0.995;exitY=0.878;exitDx=0;exitDy=0;entryX=0;entryY=0.25;entryDx=0;entryDy=0;exitPerimeter=0;" edge="1" parent="_cIhOyTJUcToX3f4oClC-28" source="_cIhOyTJUcToX3f4oClC-30" target="_cIhOyTJUcToX3f4oClC-36">
          <mxGeometry relative="1" as="geometry">
            <mxPoint x="570" y="250" as="sourcePoint" />
            <mxPoint x="710" y="250" as="targetPoint" />
          </mxGeometry>
        </mxCell>
        <mxCell id="_cIhOyTJUcToX3f4oClC-43" value="ISERT" style="edgeLabel;resizable=0;html=1;align=center;verticalAlign=middle;" connectable="0" vertex="1" parent="_cIhOyTJUcToX3f4oClC-42">
          <mxGeometry relative="1" as="geometry" />
        </mxCell>
        <mxCell id="_cIhOyTJUcToX3f4oClC-46" value="" style="endArrow=classic;html=1;rounded=0;entryX=0;entryY=0.25;entryDx=0;entryDy=0;exitX=1;exitY=0.25;exitDx=0;exitDy=0;" edge="1" parent="_cIhOyTJUcToX3f4oClC-28" source="_cIhOyTJUcToX3f4oClC-30" target="_cIhOyTJUcToX3f4oClC-45">
          <mxGeometry relative="1" as="geometry">
            <mxPoint x="730" y="330" as="sourcePoint" />
            <mxPoint x="830" y="330" as="targetPoint" />
          </mxGeometry>
        </mxCell>
        <mxCell id="_cIhOyTJUcToX3f4oClC-47" value="GET Request" style="edgeLabel;resizable=0;html=1;align=center;verticalAlign=middle;" connectable="0" vertex="1" parent="_cIhOyTJUcToX3f4oClC-46">
          <mxGeometry relative="1" as="geometry" />
        </mxCell>
        <mxCell id="_cIhOyTJUcToX3f4oClC-48" value="" style="endArrow=classic;html=1;rounded=0;exitX=0;exitY=0.75;exitDx=0;exitDy=0;entryX=1;entryY=0.5;entryDx=0;entryDy=0;" edge="1" parent="_cIhOyTJUcToX3f4oClC-28" source="_cIhOyTJUcToX3f4oClC-45" target="_cIhOyTJUcToX3f4oClC-30">
          <mxGeometry relative="1" as="geometry">
            <mxPoint x="560" y="260" as="sourcePoint" />
            <mxPoint x="600" y="320" as="targetPoint" />
          </mxGeometry>
        </mxCell>
        <mxCell id="_cIhOyTJUcToX3f4oClC-49" value="Response" style="edgeLabel;resizable=0;html=1;align=center;verticalAlign=middle;" connectable="0" vertex="1" parent="_cIhOyTJUcToX3f4oClC-48">
          <mxGeometry relative="1" as="geometry" />
        </mxCell>
        <mxCell id="_cIhOyTJUcToX3f4oClC-51" value="全国173地点分の天気を取得" style="text;html=1;strokeColor=none;fillColor=none;align=center;verticalAlign=middle;whiteSpace=wrap;rounded=0;" vertex="1" parent="_cIhOyTJUcToX3f4oClC-28">
          <mxGeometry x="560" y="190" width="90" height="30" as="geometry" />
        </mxCell>
        <mxCell id="_cIhOyTJUcToX3f4oClC-80" value="" style="endArrow=none;html=1;rounded=0;entryX=0;entryY=0;entryDx=0;entryDy=0;startArrow=none;startFill=0;endFill=0;exitX=1;exitY=0.25;exitDx=0;exitDy=0;" edge="1" parent="_cIhOyTJUcToX3f4oClC-28">
          <mxGeometry relative="1" as="geometry">
            <mxPoint x="710" y="530" as="sourcePoint" />
            <mxPoint x="850" y="530" as="targetPoint" />
          </mxGeometry>
        </mxCell>
        <mxCell id="_cIhOyTJUcToX3f4oClC-81" value="接続" style="edgeLabel;resizable=0;html=1;align=center;verticalAlign=middle;" connectable="0" vertex="1" parent="_cIhOyTJUcToX3f4oClC-80">
          <mxGeometry relative="1" as="geometry" />
        </mxCell>
        <mxCell id="_cIhOyTJUcToX3f4oClC-52" value="App フロー" parent="0" />
        <mxCell id="_cIhOyTJUcToX3f4oClC-58" value="" style="endArrow=classic;html=1;rounded=0;exitX=1;exitY=0.25;exitDx=0;exitDy=0;entryX=0;entryY=0;entryDx=0;entryDy=0;" edge="1" parent="_cIhOyTJUcToX3f4oClC-52">
          <mxGeometry relative="1" as="geometry">
            <mxPoint x="-90" y="400" as="sourcePoint" />
            <mxPoint x="50" y="400" as="targetPoint" />
          </mxGeometry>
        </mxCell>
        <mxCell id="_cIhOyTJUcToX3f4oClC-59" value="areaを選択" style="edgeLabel;resizable=0;html=1;align=center;verticalAlign=middle;" connectable="0" vertex="1" parent="_cIhOyTJUcToX3f4oClC-58">
          <mxGeometry relative="1" as="geometry" />
        </mxCell>
        <mxCell id="_cIhOyTJUcToX3f4oClC-60" value="" style="endArrow=classic;html=1;rounded=0;exitX=0;exitY=0.5;exitDx=0;exitDy=0;entryX=1;entryY=0.5;entryDx=0;entryDy=0;" edge="1" parent="_cIhOyTJUcToX3f4oClC-52">
          <mxGeometry relative="1" as="geometry">
            <mxPoint x="50" y="440" as="sourcePoint" />
            <mxPoint x="-90" y="440" as="targetPoint" />
          </mxGeometry>
        </mxCell>
        <mxCell id="_cIhOyTJUcToX3f4oClC-61" value="描画" style="edgeLabel;resizable=0;html=1;align=center;verticalAlign=middle;" connectable="0" vertex="1" parent="_cIhOyTJUcToX3f4oClC-60">
          <mxGeometry relative="1" as="geometry" />
        </mxCell>
        <mxCell id="_cIhOyTJUcToX3f4oClC-71" value="" style="endArrow=classic;html=1;rounded=0;exitX=1;exitY=0.25;exitDx=0;exitDy=0;" edge="1" parent="_cIhOyTJUcToX3f4oClC-52">
          <mxGeometry relative="1" as="geometry">
            <mxPoint x="230" y="512.17" as="sourcePoint" />
            <mxPoint x="690" y="509.9997292695386" as="targetPoint" />
          </mxGeometry>
        </mxCell>
        <mxCell id="_cIhOyTJUcToX3f4oClC-72" value="GET Request" style="edgeLabel;resizable=0;html=1;align=center;verticalAlign=middle;" connectable="0" vertex="1" parent="_cIhOyTJUcToX3f4oClC-71">
          <mxGeometry relative="1" as="geometry" />
        </mxCell>
        <mxCell id="_cIhOyTJUcToX3f4oClC-56" value="" style="rounded=0;whiteSpace=wrap;html=1;" vertex="1" parent="_cIhOyTJUcToX3f4oClC-52">
          <mxGeometry x="210" y="460" width="20" height="120" as="geometry" />
        </mxCell>
        <mxCell id="_cIhOyTJUcToX3f4oClC-54" value="" style="rounded=0;whiteSpace=wrap;html=1;" vertex="1" parent="_cIhOyTJUcToX3f4oClC-52">
          <mxGeometry x="50" y="385" width="20" height="205" as="geometry" />
        </mxCell>
        <mxCell id="_cIhOyTJUcToX3f4oClC-82" value="" style="endArrow=classic;html=1;rounded=0;entryX=1;entryY=0.5;entryDx=0;entryDy=0;" edge="1" parent="_cIhOyTJUcToX3f4oClC-52">
          <mxGeometry relative="1" as="geometry">
            <mxPoint x="690" y="539.79" as="sourcePoint" />
            <mxPoint x="230" y="539.79" as="targetPoint" />
          </mxGeometry>
        </mxCell>
        <mxCell id="_cIhOyTJUcToX3f4oClC-83" value="Response" style="edgeLabel;resizable=0;html=1;align=center;verticalAlign=middle;" connectable="0" vertex="1" parent="_cIhOyTJUcToX3f4oClC-82">
          <mxGeometry relative="1" as="geometry" />
        </mxCell>
        <mxCell id="_cIhOyTJUcToX3f4oClC-63" value="" style="endArrow=classic;html=1;rounded=0;exitX=1;exitY=0.5;exitDx=0;exitDy=0;" edge="1" parent="_cIhOyTJUcToX3f4oClC-52" source="_cIhOyTJUcToX3f4oClC-53">
          <mxGeometry relative="1" as="geometry">
            <mxPoint x="60" y="480" as="sourcePoint" />
            <mxPoint x="50" y="480" as="targetPoint" />
          </mxGeometry>
        </mxCell>
        <mxCell id="_cIhOyTJUcToX3f4oClC-64" value="prefを選択" style="edgeLabel;resizable=0;html=1;align=center;verticalAlign=middle;" connectable="0" vertex="1" parent="_cIhOyTJUcToX3f4oClC-63">
          <mxGeometry relative="1" as="geometry" />
        </mxCell>
        <mxCell id="_cIhOyTJUcToX3f4oClC-84" value="" style="endArrow=classic;html=1;rounded=0;exitX=0;exitY=0.75;exitDx=0;exitDy=0;entryX=0.973;entryY=0.801;entryDx=0;entryDy=0;entryPerimeter=0;" edge="1" parent="_cIhOyTJUcToX3f4oClC-52" source="_cIhOyTJUcToX3f4oClC-56" target="_cIhOyTJUcToX3f4oClC-54">
          <mxGeometry relative="1" as="geometry">
            <mxPoint x="90" y="539.74" as="sourcePoint" />
            <mxPoint x="100" y="540" as="targetPoint" />
          </mxGeometry>
        </mxCell>
        <mxCell id="_cIhOyTJUcToX3f4oClC-85" value="Response" style="edgeLabel;resizable=0;html=1;align=center;verticalAlign=middle;" connectable="0" vertex="1" parent="_cIhOyTJUcToX3f4oClC-84">
          <mxGeometry relative="1" as="geometry" />
        </mxCell>
        <mxCell id="_cIhOyTJUcToX3f4oClC-87" value="" style="endArrow=classic;html=1;rounded=0;entryX=0.027;entryY=0.327;entryDx=0;entryDy=0;entryPerimeter=0;" edge="1" parent="_cIhOyTJUcToX3f4oClC-52" target="_cIhOyTJUcToX3f4oClC-56">
          <mxGeometry relative="1" as="geometry">
            <mxPoint x="70" y="500" as="sourcePoint" />
            <mxPoint x="170" y="500" as="targetPoint" />
          </mxGeometry>
        </mxCell>
        <mxCell id="_cIhOyTJUcToX3f4oClC-88" value="GET Request" style="edgeLabel;resizable=0;html=1;align=center;verticalAlign=middle;" connectable="0" vertex="1" parent="_cIhOyTJUcToX3f4oClC-87">
          <mxGeometry relative="1" as="geometry" />
        </mxCell>
        <mxCell id="_cIhOyTJUcToX3f4oClC-89" value="" style="endArrow=classic;html=1;rounded=0;exitX=0.001;exitY=0.562;exitDx=0;exitDy=0;entryX=0.973;entryY=0.801;entryDx=0;entryDy=0;entryPerimeter=0;exitPerimeter=0;" edge="1" parent="_cIhOyTJUcToX3f4oClC-52">
          <mxGeometry relative="1" as="geometry">
            <mxPoint x="50" y="560" as="sourcePoint" />
            <mxPoint x="-91" y="559" as="targetPoint" />
          </mxGeometry>
        </mxCell>
        <mxCell id="_cIhOyTJUcToX3f4oClC-90" value="描画" style="edgeLabel;resizable=0;html=1;align=center;verticalAlign=middle;" connectable="0" vertex="1" parent="_cIhOyTJUcToX3f4oClC-89">
          <mxGeometry relative="1" as="geometry" />
        </mxCell>
        <mxCell id="_cIhOyTJUcToX3f4oClC-92" value="踏み台" style="text;html=1;strokeColor=none;fillColor=none;align=center;verticalAlign=middle;whiteSpace=wrap;rounded=0;" vertex="1" parent="_cIhOyTJUcToX3f4oClC-52">
          <mxGeometry x="640" y="477.5" width="50" height="20" as="geometry" />
        </mxCell>
      </root>
    </mxGraphModel>
  </diagram>
</mxfile>
